<?xml version="1.0" encoding="UTF-8"?><svg xmlns="http://www.w3.org/2000/svg" xmlns:xlink="http://www.w3.org/1999/xlink" height="314.1" preserveAspectRatio="xMidYMid meet" version="1.1" viewBox="55.5 55.5 314.1 314.1" width="314.1" zoomAndPan="magnify">
 <defs>
  <clipPath id="clip1">
   <path d="m120 282h185v88h-185z"/>
  </clipPath>
  <clipPath id="clip2">
   <path d="m369.65 212.6c0 86.74-70.31 157.05-157.05 157.05s-157.05-70.31-157.05-157.05c-0.003-86.74 70.31-157.05 157.05-157.05 86.74-0.003 157.05 70.31 157.05 157.05z"/>
  </clipPath>
  <clipPath id="clip3">
   <path d="m162 282h101v60h-101z"/>
  </clipPath>
  <clipPath id="clip4">
   <path d="m369.65 212.6c0 86.74-70.31 157.05-157.05 157.05s-157.05-70.31-157.05-157.05c-0.003-86.74 70.31-157.05 157.05-157.05 86.74-0.003 157.05 70.31 157.05 157.05z"/>
  </clipPath>
  <clipPath id="clip5">
   <path d="m190 237h45v85h-45z"/>
  </clipPath>
  <clipPath id="clip6">
   <path d="m369.65 212.6c0 86.74-70.31 157.05-157.05 157.05s-157.05-70.31-157.05-157.05c-0.003-86.74 70.31-157.05 157.05-157.05 86.74-0.003 157.05 70.31 157.05 157.05z"/>
  </clipPath>
  <clipPath id="clip7">
   <path d="m190 237h45v50h-45z"/>
  </clipPath>
  <clipPath id="clip8">
   <path d="m369.65 212.6c0 86.74-70.31 157.05-157.05 157.05s-157.05-70.31-157.05-157.05c-0.003-86.74 70.31-157.05 157.05-157.05 86.74-0.003 157.05 70.31 157.05 157.05z"/>
  </clipPath>
  <clipPath id="clip9">
   <path d="m264 200h25v41h-25z"/>
  </clipPath>
  <clipPath id="clip10">
   <path d="m369.65 212.6c0 86.74-70.31 157.05-157.05 157.05s-157.05-70.31-157.05-157.05c-0.003-86.74 70.31-157.05 157.05-157.05 86.74-0.003 157.05 70.31 157.05 157.05z"/>
  </clipPath>
  <clipPath id="clip11">
   <path d="m262 207h21v29h-21z"/>
  </clipPath>
  <clipPath id="clip12">
   <path d="m369.65 212.6c0 86.74-70.31 157.05-157.05 157.05s-157.05-70.31-157.05-157.05c-0.003-86.74 70.31-157.05 157.05-157.05 86.74-0.003 157.05 70.31 157.05 157.05z"/>
  </clipPath>
  <clipPath id="clip13">
   <path d="m139 200h25v41h-25z"/>
  </clipPath>
  <clipPath id="clip14">
   <path d="m369.65 212.6c0 86.74-70.31 157.05-157.05 157.05s-157.05-70.31-157.05-157.05c-0.003-86.74 70.31-157.05 157.05-157.05 86.74-0.003 157.05 70.31 157.05 157.05z"/>
  </clipPath>
  <clipPath id="clip15">
   <path d="m145 207h21v29h-21z"/>
  </clipPath>
  <clipPath id="clip16">
   <path d="m369.65 212.6c0 86.74-70.31 157.05-157.05 157.05s-157.05-70.31-157.05-157.05c-0.003-86.74 70.31-157.05 157.05-157.05 86.74-0.003 157.05 70.31 157.05 157.05z"/>
  </clipPath>
  <clipPath id="clip17">
   <path d="m150 131h128v149h-128z"/>
  </clipPath>
  <clipPath id="clip18">
   <path d="m369.65 212.6c0 86.74-70.31 157.05-157.05 157.05s-157.05-70.31-157.05-157.05c-0.003-86.74 70.31-157.05 157.05-157.05 86.74-0.003 157.05 70.31 157.05 157.05z"/>
  </clipPath>
  <clipPath id="clip19">
   <path d="m212 127h71v62h-71z"/>
  </clipPath>
  <clipPath id="clip20">
   <path d="m369.65 212.6c0 86.74-70.31 157.05-157.05 157.05s-157.05-70.31-157.05-157.05c-0.003-86.74 70.31-157.05 157.05-157.05 86.74-0.003 157.05 70.31 157.05 157.05z"/>
  </clipPath>
  <clipPath id="clip21">
   <path d="m149 116h73v72h-73z"/>
  </clipPath>
  <clipPath id="clip22">
   <path d="m369.65 212.6c0 86.74-70.31 157.05-157.05 157.05s-157.05-70.31-157.05-157.05c-0.003-86.74 70.31-157.05 157.05-157.05 86.74-0.003 157.05 70.31 157.05 157.05z"/>
  </clipPath>
  <clipPath id="clip23">
   <path d="m144 102h140v99h-140z"/>
  </clipPath>
  <clipPath id="clip24">
   <path d="m369.65 212.6c0 86.74-70.31 157.05-157.05 157.05s-157.05-70.31-157.05-157.05c-0.003-86.74 70.31-157.05 157.05-157.05 86.74-0.003 157.05 70.31 157.05 157.05z"/>
  </clipPath>
  <clipPath id="clip25">
   <path d="m256 195h27v36h-27z"/>
  </clipPath>
  <clipPath id="clip26">
   <path d="m369.65 212.6c0 86.74-70.31 157.05-157.05 157.05s-157.05-70.31-157.05-157.05c-0.003-86.74 70.31-157.05 157.05-157.05 86.74-0.003 157.05 70.31 157.05 157.05z"/>
  </clipPath>
  <clipPath id="clip27">
   <path d="m145 193h28v38h-28z"/>
  </clipPath>
  <clipPath id="clip28">
   <path d="m369.65 212.6c0 86.74-70.31 157.05-157.05 157.05s-157.05-70.31-157.05-157.05c-0.003-86.74 70.31-157.05 157.05-157.05 86.74-0.003 157.05 70.31 157.05 157.05z"/>
  </clipPath>
  <clipPath id="clip29">
   <path d="m167 221h94v61h-94z"/>
  </clipPath>
  <clipPath id="clip30">
   <path d="m369.65 212.6c0 86.74-70.31 157.05-157.05 157.05s-157.05-70.31-157.05-157.05c-0.003-86.74 70.31-157.05 157.05-157.05 86.74-0.003 157.05 70.31 157.05 157.05z"/>
  </clipPath>
 </defs>
 <g id="surface1">
  <g id="change1_1"><path d="m369.65 212.6c0 86.74-70.31 157.05-157.05 157.05s-157.05-70.31-157.05-157.05c-0.003-86.74 70.31-157.05 157.05-157.05 86.74-0.003 157.05 70.31 157.05 157.05" fill="#78d1cc"/></g>
  <g clip-path="url(#clip1)">
   <g clip-path="url(#clip2)" id="change2_4">
    <path d="m304.22 370.08c-7.76 5.8-16.1 10.88-24.91 15.13-1.34 0.65-2.69 1.27-4.04 1.88-19.14 8.58-40.34 13.35-62.67 13.35s-43.53-4.77-62.66-13.35c-1.37-0.61-2.72-1.23-4.05-1.88-8.81-4.26-17.15-9.33-24.91-15.13 1.36-30.36 17.49-56.88 41.38-72.54 14.43-9.47 31.69-14.97 50.24-14.97 2.83 0 5.63 0.13 8.38 0.38 15.37 1.39 29.63 6.56 41.86 14.59 11 7.21 20.35 16.72 27.37 27.84 8.24 13.05 13.27 28.32 14.01 44.7" fill="#36ab9c"/>
   </g>
  </g>
  <g clip-path="url(#clip3)">
   <g clip-path="url(#clip4)" id="change2_5">
    <path d="m262.84 297.54c-1.4 10.59-6.07 20.16-12.98 27.64-9.26 10.03-22.52 16.32-37.26 16.32-23.61 0-43.45-16.15-49.08-38.01-0.5-1.94-0.89-3.93-1.16-5.95 14.43-9.47 31.69-14.97 50.24-14.97 2.83 0 5.63 0.12 8.39 0.38 0.48 0.04 0.96 0.09 1.43 0.14 0.3 0.03 0.6 0.06 0.89 0.1 0.33 0.03 0.66 0.08 0.98 0.12 0.2 0.02 0.41 0.05 0.61 0.08 0.29 0.03 0.59 0.08 0.89 0.12 0.23 0.03 0.46 0.07 0.7 0.1 0.2 0.03 0.4 0.06 0.6 0.1 0.34 0.05 0.67 0.11 1.01 0.16 1.46 0.25 2.91 0.53 4.34 0.85l0.96 0.21c0.18 0.05 0.37 0.09 0.55 0.14 0.34 0.08 0.69 0.16 1.02 0.25 0.06 0.01 0.11 0.02 0.15 0.03 0.43 0.11 0.86 0.22 1.28 0.34 0.46 0.11 0.91 0.24 1.35 0.37 0.51 0.14 1.01 0.29 1.52 0.44 0.39 0.12 0.78 0.24 1.17 0.37 0.25 0.08 0.51 0.16 0.75 0.24 0.41 0.13 0.82 0.27 1.22 0.41 0.5 0.17 0.99 0.34 1.48 0.52 0.04 0.02 0.07 0.03 0.1 0.04 0.51 0.18 1.01 0.37 1.51 0.56 0.37 0.15 0.75 0.29 1.13 0.45 0.99 0.39 1.96 0.8 2.92 1.22l1.26 0.57c0.38 0.17 0.76 0.35 1.14 0.53 0.35 0.17 0.69 0.33 1.03 0.5 0.32 0.15 0.63 0.31 0.94 0.47 0.2 0.1 0.41 0.2 0.61 0.31 0.83 0.42 1.64 0.86 2.44 1.3 0.29 0.16 0.59 0.33 0.87 0.49 0.19 0.11 0.37 0.21 0.55 0.31l0.68 0.4 0.69 0.42 0.45 0.27c0.43 0.25 0.85 0.51 1.27 0.78 0.46 0.29 0.91 0.58 1.36 0.88" fill="#36ab9c"/>
   </g>
  </g>
  <g clip-path="url(#clip5)">
   <g clip-path="url(#clip6)" id="change2_1">
    <path d="m234.93 257.42v43.93c0 11.11-9.09 20.21-20.2 20.21h-4.26c-11.11 0-20.19-9.1-20.19-20.21v-43.93c0-11.11 9.08-20.19 20.19-20.19h4.26c11.11 0 20.2 9.08 20.2 20.19" fill="#36ab9c"/>
   </g>
  </g>
  <g clip-path="url(#clip7)">
   <g clip-path="url(#clip8)" id="change3_1">
    <path d="m234.93 257.42v23.25c-6.64 3.69-13.68 5.83-20.83 5.83-8.43 0-16.47-2.34-23.82-6.43v-22.65c0-11.11 9.08-20.19 20.19-20.19h4.26c11.11 0 20.2 9.08 20.2 20.19" fill="#f8a29e"/>
   </g>
  </g>
  <g clip-path="url(#clip9)">
   <g clip-path="url(#clip10)" id="change4_2">
    <path d="m267.05 240.48s10.46-3.56 17.14-15.22c7.26-12.66 2.7-20.55 1.26-22.26-3.93-4.67-10-1.67-11 0s-15.48 27.97-7.4 37.48" fill="#fbd5c0"/>
   </g>
  </g>
  <g clip-path="url(#clip11)">
   <g clip-path="url(#clip12)" id="change3_3">
    <path d="m277.3 207.15s6.64 0.85 4.31 10.18c-2.34 9.34-8.47 13.03-16.81 17.8-8.33 4.77 4.17-26.08 12.5-27.98" fill="#f8a29e"/>
   </g>
  </g>
  <g clip-path="url(#clip13)">
   <g clip-path="url(#clip14)" id="change4_3">
    <path d="m160.87 240.48s-10.46-3.56-17.14-15.22c-7.27-12.66-2.71-20.55-1.27-22.26 3.93-4.67 10-1.67 11 0s15.49 27.97 7.41 37.48" fill="#fbd5c0"/>
   </g>
  </g>
  <g clip-path="url(#clip15)">
   <g clip-path="url(#clip16)" id="change3_2">
    <path d="m150.61 207.15s-6.63 0.85-4.3 10.18c2.33 9.34 8.47 13.03 16.8 17.8 8.34 4.77-4.16-26.08-12.5-27.98" fill="#f8a29e"/>
   </g>
  </g>
  <g clip-path="url(#clip17)">
   <g clip-path="url(#clip18)" id="change4_1">
    <path d="m277.3 200.99c0-38.33-28.29-69.41-63.2-69.41-34.9 0-63.21 31.08-63.21 69.41s28.31 78.4 63.21 78.4c32.8 0 63.2-40.39 63.2-78.4" fill="#fbd5c0"/>
   </g>
  </g>
  <g clip-path="url(#clip19)">
   <g clip-path="url(#clip20)" id="change5_2">
    <path d="m218.45 151.33s18.75 39.34 63.47 35.55c0 0 2.29 9.29-0.35-15.26-2.98-27.67-27.49-50.95-67.47-42.62 0 0-4.98-2 4.35 22.33" fill="#351f16"/>
   </g>
  </g>
  <g clip-path="url(#clip21)">
   <g clip-path="url(#clip22)" id="change5_1">
    <path d="m221.79 131.58s1.66-7.24-4.34-12.91-83.68-7.34-64.78 69.01c0 0 37.33-7.33 65.78-36.35l3.34-19.75" fill="#351f16"/>
   </g>
  </g>
  <g clip-path="url(#clip23)">
   <g clip-path="url(#clip24)" id="change2_2">
    <path d="m214.33 102.35s-81.46-0.67-67.8 98.64h4.36s7.66-49.25 64.11-49.31c56.45 0.06 62.3 49.31 62.3 49.31h4.84c13.66-99.31-67.81-98.64-67.81-98.64" fill="#36ab9c"/>
   </g>
  </g>
  <g clip-path="url(#clip25)">
   <g clip-path="url(#clip26)" id="change6_1">
    <path d="m282.76 195.96l-26.43 29.05-0.28 5.34 26.09-29.36 0.62-5.03" fill="#fff"/>
   </g>
  </g>
  <g clip-path="url(#clip27)">
   <g clip-path="url(#clip28)" id="change6_2">
    <path d="m145.64 193.29l26.69 31.72 0.32 5.93-26.12-29.95-0.89-7.7" fill="#fff"/>
   </g>
  </g>
  <g clip-path="url(#clip29)">
   <g clip-path="url(#clip30)" id="change2_3">
    <path d="m214.33 221.39l-46.5 4.7s1.79 31.91 8.28 39.7c6.63 7.96 28 15.81 38.34 15.64 10.42-0.17 31.48-8.91 38.05-17 6.18-7.61 8.33-38.34 8.33-38.34l-46.5-4.7" fill="#36ab9c"/>
   </g>
  </g>
 </g>
</svg>